<?xml version="1.0" standalone="no"?><!DOCTYPE svg PUBLIC "-//W3C//DTD SVG 1.1//EN" "http://www.w3.org/Graphics/SVG/1.1/DTD/svg11.dtd"><svg t="1681695662417" class="icon" viewBox="0 0 1024 1024" version="1.1" xmlns="http://www.w3.org/2000/svg" p-id="1746" xmlns:xlink="http://www.w3.org/1999/xlink" width="200" height="200"><path d="M105.13 930.27c0 23.47 6.81 29.91 28.12 29.91h337.44V511.75H105.13z m448.18 29.91h337.44c21.35 0 28.12-6.4 28.12-29.91V511.75h-365.6v448.43z m366.13-692.65H715.72c49.18-11.2 101.12-47.46 107.52-90 7.5-48.57-50.19-122.19-120-112.86C619.77 76.2 558.57 149.87 515.38 207c-42.86-56-98.72-121.47-178.74-140.5-77.5-18.33-130.58 62-129.16 111.72 1.39 42.25 50.24 78.15 100.8 89.31H104.56c-25.18 0-40.74 14.18-40.74 40.75v162.89l407.44 0.08V267.53h81.48v203.72l407.44-0.08V308.28c0-26.57-15.6-40.75-40.74-40.75z m-656.06-74.31c-14.1-15.69-4.56-37 4.28-53.09 16.26-28.36 38.91-45.59 77.49-29.54 53.79 22.45 93.39 69.92 125.66 112.49-68.33 7.54-170.27 10.47-207.43-29.86z m297.27 29.13c33.24-42.62 71.83-85.89 125.24-112.49 56-27.67 107.93 47.1 81.37 83C746.81 220.11 682 222.68 647 224.22a604.36 604.36 0 0 1-86.35-1.87z" fill="#FF716E" p-id="1747"></path><path d="M470.69 511.75H244.15a464.69 464.69 0 0 0-6.06 448.43h232.6zM552.74 287.08v184.17l407.44-0.08v-72.55a465 465 0 0 0-407.44-111.54zM918.87 930.27V511.75h-365.6v448.43h337.48c21.35 0 28.12-6.4 28.12-29.91zM471.26 471.25V312a465.61 465.61 0 0 0-201.09 159.21z" fill="#FF5C64" p-id="1748"></path><path d="M553.27 960.18h337.48c21.35 0 28.12-6.4 28.12-29.91V511.75h-365.6zM364.91 846.47a405.26 405.26 0 0 0 16.19 113.71h89.59V573.55a403.52 403.52 0 0 0-105.78 272.92zM769.92 441.47a403.81 403.81 0 0 0-152.7 29.77l305.24-0.06a403.8 403.8 0 0 0-152.54-29.71z" fill="#FC4956" p-id="1749"></path><path d="M902.36 620.49c-148.68 0-278.65 80.12-349.09 199.54v140.15h337.48c21.35 0 28.12-6.4 28.12-29.91V620.82q-8.22-0.33-16.51-0.33z" fill="#F23D4F" p-id="1750"></path><path d="M299.27 304.25c7.59 11.39-32.34 25.47-74.46 53.53s-70.48 59.5-78.08 48.11 15.7-50.44 57.82-78.51 87.13-34.53 94.72-23.13z" fill="#FFFFFF" p-id="1751"></path></svg>