<svg t="1682676691748" class="icon" viewBox="0 0 1094 1024" version="1.1" xmlns="http://www.w3.org/2000/svg" p-id="9802" width="200" height="200"><path d="M511.635782 580.654545m-443.345455 0a443.345455 443.345455 0 1 0 886.690909 0 443.345455 443.345455 0 1 0-886.690909 0Z" fill="#FF8A57" p-id="9803"></path><path d="M230.035782 319.534545a317.672727 317.672727 0 0 0-58.414546 81.454546c-25.367273 49.105455-34.676364 84.247273-29.323636 83.781818s24.901818-40.261818 51.2-76.8a705.861818 705.861818 0 0 1 57.949091-73.774545c28.392727-28.625455-1.861818-31.650909-21.410909-14.661819zM299.388509 267.869091c6.516364 6.516364 2.56 14.894545-5.12 21.876364s-16.523636 10.007273-23.272727 3.025454a17.221818 17.221818 0 0 1 3.025454-23.272727 20.48 20.48 0 0 1 25.367273-1.629091z" fill="#FFFFFF" p-id="9804"></path><path d="M727.839418 238.545455a244.130909 244.130909 0 0 1 195.025455-71.68c121.716364 11.170909 134.050909 103.563636 134.050909 103.563636a214.574545 214.574545 0 0 1-137.774546 39.098182c-84.48-8.610909-191.301818-70.981818-191.301818-70.981818z" fill="#69DB65" p-id="9805"></path><path d="M737.921831 610.882055m-1.27711 22.771488a22.807273 22.807273 0 1 0 2.554221-45.542977 22.807273 22.807273 0 1 0-2.554221 45.542977Z" fill="#E2642D" p-id="9806"></path><path d="M771.511938 718.171496m-1.27711 22.771488a22.807273 22.807273 0 1 0 2.554221-45.542977 22.807273 22.807273 0 1 0-2.554221 45.542977Z" fill="#E2642D" p-id="9807"></path><path d="M686.927157 731.139946m-1.27711 22.771488a22.807273 22.807273 0 1 0 2.554221-45.542976 22.807273 22.807273 0 1 0-2.554221 45.542976Z" fill="#E2642D" p-id="9808"></path><path d="M716.879267 810.565855m-1.277111 22.771488a22.807273 22.807273 0 1 0 2.554221-45.542977 22.807273 22.807273 0 1 0-2.554221 45.542977Z" fill="#E2642D" p-id="9809"></path><path d="M622.646691 842.24m-1.277111 22.771488a22.807273 22.807273 0 1 0 2.554222-45.542976 22.807273 22.807273 0 1 0-2.554222 45.542976Z" fill="#E2642D" p-id="9810"></path><path d="M652.203055 251.345455a36.770909 36.770909 0 0 0 20.014545 46.545454 36.770909 36.770909 0 0 0 49.803636-5.818182 29.090909 29.090909 0 0 0-2.792727-30.254545c15.36-15.36 44.450909-44.683636 74.24-76.567273a751.476364 751.476364 0 0 0 97.745455-126.603636c1.396364-11.170909-65.861818-57.483636-63.069091-23.272728 3.025455 40.727273-99.374545 162.909091-134.749091 205.265455a33.745455 33.745455 0 0 0-41.192727 10.705455z" fill="#604D42" p-id="9811"></path><path d="M1084.843055 226.443636a179.432727 179.432727 0 0 0-164.538182-103.098181h-2.792728a11.636364 11.636364 0 0 0 0 23.272727 151.272727 151.272727 0 0 1 142.429091 81.92 212.945455 212.945455 0 0 1-109.847272 44.683636c-50.036364 8.843636-149.410909-12.334545-150.574546-12.567273a11.636364 11.636364 0 0 0-11.403636 18.85091 431.709091 431.709091 0 1 1-537.832727-104.727273 11.636364 11.636364 0 0 0-11.17091-20.48 455.214545 455.214545 0 1 0 585.774546 134.981818 452.654545 452.654545 0 0 0 129.163636 6.981818c98.909091-17.221818 128-57.018182 129.163637-58.647273a11.636364 11.636364 0 0 0 1.629091-11.170909z" fill="#604D42" p-id="9812"></path><path d="M284.493964 157.323636a11.636364 11.636364 0 0 0 4.421818 0c12.101818-5.12 24.669091-9.774545 37.469091-13.730909a11.636364 11.636364 0 1 0-6.981818-23.272727c-13.265455 4.189091-26.530909 9.076364-39.563637 14.429091a11.636364 11.636364 0 0 0 4.421818 23.272727zM377.8176 130.094545a435.665455 435.665455 0 0 1 77.730909-6.981818 427.52 427.52 0 0 1 186.181818 42.356364 11.636364 11.636364 0 0 0 10.007273-20.945455 450.792727 450.792727 0 0 0-196.887273-44.683636A460.567273 460.567273 0 0 0 372.930327 107.054545a11.636364 11.636364 0 0 0-9.309091 13.498182 11.869091 11.869091 0 0 0 14.196364 9.541818z" fill="#604D42" p-id="9813"></path></svg>