<?xml version="1.0" standalone="no"?><!DOCTYPE svg PUBLIC "-//W3C//DTD SVG 1.1//EN" "http://www.w3.org/Graphics/SVG/1.1/DTD/svg11.dtd"><svg t="1681695780220" class="icon" viewBox="0 0 1024 1024" version="1.1" xmlns="http://www.w3.org/2000/svg" p-id="1895" xmlns:xlink="http://www.w3.org/1999/xlink" width="200" height="200"><path d="M506.72 63.78c-204.2 2.84-368.35 171.39-366 375.6A370.45 370.45 0 0 0 267 714.08a1.91 1.91 0 0 0 0.8 0.41 1.8 1.8 0 0 0-0.39 1.11c0 135.11 109.53 244.64 244.64 244.64s244.59-109.51 244.59-244.62a1.8 1.8 0 0 0-0.39-1.11 1.91 1.91 0 0 0 0.8-0.41 370.44 370.44 0 0 0 126.29-279c0-206.86-169.11-374.2-376.62-371.32zM461 505.9l0.47-1.21h0.58z m194.42-104.48L482.66 646.16a8.63 8.63 0 0 1-6.3 2.7 3.75 3.75 0 0 1-2.7-0.9c-4.2-1.22-5.7-3.6-4.5-7.2l27.9-164.66H375.58q-4.49 0-6.3-3.6-2.68-3.57 0.91-8.1l187.15-244.74c2.4-3.6 5.1-4.18 8.1-1.8 3 0.6 4.5 3 4.5 7.2L542 389.72h107.12c3 0 5.1 1.22 6.3 3.6a18.4 18.4 0 0 1 0 8.1z" fill="#48E1AA" p-id="1896"></path><path d="M815.42 221a460.67 460.67 0 0 0-185-38.5c-235 0-429 175.32-458.38 402.28A372.57 372.57 0 0 0 267 714.08a1.91 1.91 0 0 0 0.8 0.41 1.8 1.8 0 0 0-0.39 1.11c0 135.11 109.53 244.64 244.64 244.64s244.59-109.51 244.59-244.62a1.8 1.8 0 0 0-0.39-1.11 1.91 1.91 0 0 0 0.8-0.41A371.39 371.39 0 0 0 815.42 221zM461 505.9l0.47-1.21h0.58z m194.42-104.48L482.66 646.16a8.63 8.63 0 0 1-6.3 2.7 3.75 3.75 0 0 1-2.7-0.9c-4.2-1.22-5.7-3.6-4.5-7.2l27.9-164.66H375.58q-4.49 0-6.3-3.6-2.68-3.57 0.91-8.1l187.15-244.74c2.4-3.6 5.1-4.18 8.1-1.8 3 0.6 4.5 3 4.5 7.2L542 389.72h107.12c3 0 5.1 1.22 6.3 3.6a18.4 18.4 0 0 1 0 8.1z" fill="#3CD38E" p-id="1897"></path><path d="M687.77 391.85q-16.38 0-32.43 1.34a0.57 0.57 0 0 1 0.08 0.13 18.4 18.4 0 0 1 0 8.1L482.66 646.16a8.63 8.63 0 0 1-6.3 2.7 3.75 3.75 0 0 1-2.7-0.9c-4.2-1.22-5.7-3.6-4.5-7.2l27.9-164.66h-51.88c-90.64 71.68-148.81 182.62-148.81 307.14a393.7 393.7 0 0 0 3.82 54.85A244.54 244.54 0 0 0 512 960.26c135.11 0 244.64-109.53 244.64-244.64a1.8 1.8 0 0 0-0.39-1.11 1.91 1.91 0 0 0 0.8-0.41 370.43 370.43 0 0 0 126.18-270 389.59 389.59 0 0 0-195.46-52.25zM461 505.9l0.47-1.21h0.58z" fill="#1DCE75" p-id="1898"></path><path d="M788.81 572.1c-178.69 0-323.55 144.9-323.55 323.54a324.69 324.69 0 0 0 5.81 61.19 246.45 246.45 0 0 0 40.93 3.43c135.11 0 244.64-109.53 244.64-244.64a1.8 1.8 0 0 0-0.39-1.11 1.91 1.91 0 0 0 0.8-0.41 372.35 372.35 0 0 0 97.45-135.3 324.55 324.55 0 0 0-65.69-6.7z" fill="#05C46D" p-id="1899"></path><path d="M411.17 152.4c7.56 11.34-32.19 25.35-74.11 53.29s-70.16 59.22-77.72 47.88 15.66-50.21 57.56-78.14 86.72-34.37 94.27-23.03z" fill="#FFFFFF" p-id="1900"></path></svg>