<?xml version="1.0" standalone="no"?><!DOCTYPE svg PUBLIC "-//W3C//DTD SVG 1.1//EN" "http://www.w3.org/Graphics/SVG/1.1/DTD/svg11.dtd"><svg t="1681710779878" class="icon" viewBox="0 0 1024 1024" version="1.1" xmlns="http://www.w3.org/2000/svg" p-id="57492" xmlns:xlink="http://www.w3.org/1999/xlink" width="200" height="200"><path d="M665.6 60.509091c-89.832727 18.618182-154.065455 97.978182-178.269091 132.887273-32.116364-33.047273-90.298182-81.454545-161.512727-88.901819C217.6 93.090909 162.909091 135.447273 116.363636 109.847273c0 0 23.272727 86.109091 159.650909 121.483636 111.476364 28.858182 238.08-7.447273 238.08-7.447273s-2.792727-3.956364-8.145454-10.24a535.272727 535.272727 0 0 0 228.072727-21.876363c143.592727-52.130909 158.72-148.48 158.72-148.48-47.243636 32.581818-111.476364-6.981818-227.141818 17.221818z" fill="#73D36E" p-id="57493"></path><path d="M478.021818 211.316364s87.272727-78.894545 256-62.370909c187.810909 18.618182 264.610909 217.6 238.312727 393.541818a528.058182 528.058182 0 0 1-209.454545 342.341818c-90.530909 66.792727-194.094545 91.461818-210.618182 109.381818a51.432727 51.432727 0 0 1-43.054545 13.963636c-17.454545-2.792727-313.716364-138.472727-390.283637-354.90909-63.767273-180.130909 1.396364-378.414545 129.861819-448.232728 137.309091-74.705455 229.236364 6.283636 229.236363 6.283637z" fill="#FF9CBB" p-id="57494"></path><path d="M526.429091 181.76a285.323636 285.323636 0 0 0-96.349091 124.509091c-26.298182 66.094545-24.901818 129.396364-11.170909 212.014545 16.058182 90.065455 45.381818 162.909091 43.054545 167.098182s-64.698182-81.687273-83.083636-188.509091a330.24 330.24 0 0 1 4.189091-167.563636c33.512727-105.658182 143.36-147.549091 143.36-147.549091z" fill="#FF5A8D" p-id="57495"></path><path d="M863.883636 694.458182a11.636364 11.636364 0 0 0-16.058181 3.956363 532.48 532.48 0 0 1-139.636364 153.6 712.610909 712.610909 0 0 1-156.858182 82.618182 182.690909 182.690909 0 0 0-55.389091 28.16 39.796364 39.796364 0 0 1-32.116363 10.24c-23.272727-5.585455-306.734545-139.636364-380.509091-347.229091-57.716364-162.909091-6.283636-353.512727 114.269091-427.985454a351.883636 351.883636 0 0 0 49.338181 16.756363h3.025455a11.636364 11.636364 0 0 0 3.025454-23.272727c-86.574545-23.272727-124.974545-64.930909-141.032727-90.996363a211.316364 211.316364 0 0 0 64.465455-5.585455 409.134545 409.134545 0 0 1 122.88-7.447273 227.607273 227.607273 0 0 1 113.105454 49.105455 11.636364 11.636364 0 0 0 14.196364-18.618182A250.647273 250.647273 0 0 0 302.545455 64.930909a427.985455 427.985455 0 0 0-129.396364 7.68c-32.581818 5.818182-56.32 10.007273-76.334546 0a11.636364 11.636364 0 0 0-16.756363 13.265455c0 3.025455 16.989091 59.578182 94.487273 101.469091C50.734545 272.058182 1.396364 463.825455 61.44 633.949091 139.636364 856.436364 442.181818 993.047273 459.869091 996.305455a56.32 56.32 0 0 0 9.076364 0 63.301818 63.301818 0 0 0 44.218181-18.152728 225.512727 225.512727 0 0 1 46.545455-23.272727 743.330909 743.330909 0 0 0 162.909091-85.410909 556.218182 556.218182 0 0 0 145.454545-160.349091 11.636364 11.636364 0 0 0-4.189091-14.661818zM884.363636 654.661818a11.636364 11.636364 0 0 0-15.592727 5.352727l-1.861818 3.956364a11.636364 11.636364 0 0 0 5.352727 15.592727 11.869091 11.869091 0 0 0 5.12 1.163637 11.636364 11.636364 0 0 0 10.472727-6.516364l1.861819-3.956364a11.636364 11.636364 0 0 0-5.352728-15.592727zM909.963636 586.24a11.636364 11.636364 0 0 0-14.661818 7.447273q-4.654545 14.429091-10.24 28.625454a11.636364 11.636364 0 0 0 21.643637 8.610909q5.818182-14.894545 10.705454-30.021818a11.636364 11.636364 0 0 0-7.447273-14.661818z" fill="#604D42" p-id="57496"></path><path d="M780.8 141.265455c85.410909-54.225455 97.28-120.552727 97.745455-124.043637A11.636364 11.636364 0 0 0 861.090909 5.818182c-20.712727 14.429091-46.545455 12.334545-82.850909 9.541818a465.454545 465.454545 0 0 0-139.636364 5.818182C518.050909 46.545455 443.810909 170.821818 440.552727 175.941818a11.636364 11.636364 0 0 0 7.912728 17.454546 607.883636 607.883636 0 0 0 98.443636 7.68 485.003636 485.003636 0 0 0 165.236364-26.298182 384.698182 384.698182 0 0 0 43.985454-19.549091c136.378182 58.181818 176.872727 228.305455 156.858182 362.356364-1.861818 12.334545-4.189091 24.436364-6.981818 36.538181a11.636364 11.636364 0 0 0 8.843636 13.963637h2.56a11.636364 11.636364 0 0 0 11.403636-9.076364q4.421818-18.850909 7.214546-38.4c20.712727-137.309091-20.014545-311.156364-155.229091-379.345454z m-76.567273 11.636363a538.996364 538.996364 0 0 1-232.727272 20.014546c23.272727-33.047273 85.643636-111.010909 171.752727-128.930909a445.905455 445.905455 0 0 1 133.585454-5.352728 221.090909 221.090909 0 0 0 71.68-1.629091c-14.661818 29.789091-51.2 81.454545-144.290909 115.898182z" fill="#604D42" p-id="57497"></path><path d="M166.4 402.618182a223.185455 223.185455 0 0 0-13.265455 74.007273c-2.792727 52.130909 8.145455 78.661818 12.334546 75.636363s0-32.581818 7.912727-75.869091a463.592727 463.592727 0 0 1 17.92-69.818182c11.403636-37.236364-16.290909-26.996364-24.901818-3.956363zM208.290909 323.723636a19.781818 19.781818 0 0 0-20.48 12.8 16.756364 16.756364 0 0 0 7.214546 20.712728c8.145455 3.258182 14.661818-3.258182 18.385454-12.567273s3.258182-18.850909-5.12-20.945455z" fill="#FFFFFF" p-id="57498"></path></svg>